<svg width="24" height="24" viewBox="0 0 24 24" fill="none" xmlns="http://www.w3.org/2000/svg">
<path d="M22 5H18.344L17.958 3.713C17.8963 3.50692 17.7697 3.32624 17.5971 3.19779C17.4245 3.06935 17.2151 2.99999 17 3H7.6C7.38487 2.99999 7.17546 3.06935 7.00288 3.19779C6.8303 3.32624 6.70374 3.50692 6.642 3.713L6.256 5H2C1.73478 5 1.48043 5.10536 1.29289 5.29289C1.10536 5.48043 1 5.73478 1 6V20C1 20.2652 1.10536 20.5196 1.29289 20.7071C1.48043 20.8946 1.73478 21 2 21H22C22.2652 21 22.5196 20.8946 22.7071 20.7071C22.8946 20.5196 23 20.2652 23 20V6C23 5.73478 22.8946 5.48043 22.7071 5.29289C22.5196 5.10536 22.2652 5 22 5ZM21 19H3V7H7C7.21513 7.00001 7.42454 6.93065 7.59712 6.80221C7.7697 6.67376 7.89626 6.49308 7.958 6.287L8.344 5H16.256L16.642 6.287C16.7037 6.49308 16.8303 6.67376 17.0029 6.80221C17.1755 6.93065 17.3849 7.00001 17.6 7H21V19ZM12 7C11.0111 7 10.0444 7.29324 9.22215 7.84265C8.3999 8.39206 7.75904 9.17295 7.3806 10.0866C7.00216 11.0002 6.90315 12.0055 7.09607 12.9755C7.289 13.9454 7.7652 14.8363 8.46447 15.5355C9.16373 16.2348 10.0546 16.711 11.0245 16.9039C11.9945 17.0969 12.9998 16.9978 13.9134 16.6194C14.827 16.241 15.6079 15.6001 16.1573 14.7779C16.7068 13.9556 17 12.9889 17 12C16.9984 10.6744 16.4711 9.40356 15.5338 8.46622C14.5964 7.52888 13.3256 7.00159 12 7ZM12 15C11.4067 15 10.8266 14.8241 10.3333 14.4944C9.83994 14.1648 9.45542 13.6962 9.22836 13.1481C9.0013 12.5999 8.94189 11.9967 9.05764 11.4147C9.1734 10.8328 9.45912 10.2982 9.87868 9.87868C10.2982 9.45912 10.8328 9.1734 11.4147 9.05764C11.9967 8.94189 12.5999 9.0013 13.1481 9.22836C13.6962 9.45542 14.1648 9.83994 14.4944 10.3333C14.8241 10.8266 15 11.4067 15 12C15 12.7956 14.6839 13.5587 14.1213 14.1213C13.5587 14.6839 12.7956 15 12 15Z" fill="#979797"/>
</svg>
