<svg width="23" height="23" viewBox="0 0 23 23" fill="none" xmlns="http://www.w3.org/2000/svg">
<path d="M19.2702 6.83783H5.59448V12.4324H17.7336L19.2702 6.83783Z" fill="#ED1C2E"/>
<path d="M18.2083 13.4166C18.4095 13.4167 18.6056 13.3534 18.7689 13.2358C18.9321 13.1181 19.0542 12.9521 19.1178 12.7611L21.0344 7.01115C21.0824 6.86708 21.0955 6.71367 21.0725 6.56356C21.0496 6.41345 20.9913 6.27094 20.9025 6.14778C20.8137 6.02461 20.6969 5.92432 20.5617 5.85515C20.4265 5.78599 20.2768 5.74994 20.125 5.74998H6.70829V1.91665C6.70829 1.66248 6.60733 1.41872 6.4276 1.239C6.24788 1.05928 6.00413 0.958313 5.74996 0.958313H2.87496C2.62079 0.958313 2.37704 1.05928 2.19732 1.239C2.01759 1.41872 1.91663 1.66248 1.91663 1.91665C1.91663 2.17081 2.01759 2.41457 2.19732 2.59429C2.37704 2.77401 2.62079 2.87498 2.87496 2.87498H4.79163V16.2916C4.79163 16.5458 4.89259 16.7896 5.07232 16.9693C5.25204 17.149 5.49579 17.25 5.74996 17.25H17.25C17.5041 17.25 17.7479 17.149 17.9276 16.9693C18.1073 16.7896 18.2083 16.5458 18.2083 16.2916C18.2083 16.0375 18.1073 15.7937 17.9276 15.614C17.7479 15.4343 17.5041 15.3333 17.25 15.3333H6.70829V13.4166H18.2083ZM6.70829 7.66665H18.7958L17.5173 11.5H6.70829V7.66665ZM6.22913 18.2083C6.51344 18.2083 6.79136 18.2926 7.02776 18.4506C7.26415 18.6085 7.4484 18.833 7.5572 19.0957C7.666 19.3584 7.69447 19.6474 7.63901 19.9263C7.58354 20.2051 7.44663 20.4612 7.24559 20.6623C7.04455 20.8633 6.78842 21.0002 6.50957 21.0557C6.23072 21.1112 5.94169 21.0827 5.67902 20.9739C5.41635 20.8651 5.19184 20.6808 5.03389 20.4444C4.87593 20.208 4.79163 19.9301 4.79163 19.6458C4.79163 19.2646 4.94308 18.8989 5.21266 18.6293C5.48224 18.3598 5.84788 18.2083 6.22913 18.2083ZM15.8125 18.2083C16.0968 18.2083 16.3747 18.2926 16.6111 18.4506C16.8475 18.6085 17.0317 18.833 17.1405 19.0957C17.2493 19.3584 17.2778 19.6474 17.2223 19.9263C17.1669 20.2051 17.03 20.4612 16.8289 20.6623C16.6279 20.8633 16.3717 21.0002 16.0929 21.0557C15.8141 21.1112 15.525 21.0827 15.2624 20.9739C14.9997 20.8651 14.7752 20.6808 14.6172 20.4444C14.4593 20.208 14.375 19.9301 14.375 19.6458C14.375 19.2646 14.5264 18.8989 14.796 18.6293C15.0656 18.3598 15.4312 18.2083 15.8125 18.2083Z" fill="#283A97"/>
</svg>
