<svg width="40" height="49" viewBox="0 0 40 49" fill="none" xmlns="http://www.w3.org/2000/svg">
<path d="M0 46.7727C0 47.3634 0.234126 47.93 0.650874 48.3476C1.06762 48.7653 1.63285 49 2.22222 49H37.7778C38.3671 49 38.9324 48.7653 39.3491 48.3476C39.7659 47.93 40 47.3634 40 46.7727V37.8636C40 36.0915 39.2976 34.392 38.0474 33.1389C36.7971 31.8858 35.1014 31.1818 33.3333 31.1818H22.2222V24.5C22.2222 23.9093 21.9881 23.3428 21.5713 22.9251C21.1546 22.5074 20.5894 22.2727 20 22.2727H17.7778V11.1364C17.7743 8.1839 16.6025 5.35338 14.5195 3.26567C12.4365 1.17796 9.61243 0.00353659 6.66667 0C6.0773 0 5.51207 0.234658 5.09532 0.652353C4.67857 1.07005 4.44444 1.63656 4.44444 2.22727V22.2727H2.22222C1.63285 22.2727 1.06762 22.5074 0.650874 22.9251C0.234126 23.3428 0 23.9093 0 24.5V46.7727ZM13.3333 44.5455V42.3182H35.5556V44.5455H13.3333ZM35.5556 37.8636H13.3333C13.3333 37.2729 13.5675 36.7064 13.9842 36.2887C14.401 35.871 14.9662 35.6364 15.5556 35.6364H33.3333C33.9227 35.6364 34.4879 35.871 34.9047 36.2887C35.3214 36.7064 35.5556 37.2729 35.5556 37.8636ZM8.88889 4.83541C10.1878 5.29775 11.3122 6.15151 12.1079 7.27959C12.9036 8.40767 13.3317 9.75484 13.3333 11.1364V22.2727H8.88889V4.83541ZM4.44444 26.7273H17.7778V31.1818H15.5556C13.7874 31.1818 12.0918 31.8858 10.8415 33.1389C9.59127 34.392 8.88889 36.0915 8.88889 37.8636V44.5455H4.44444V26.7273Z" fill="#283A97"/>
</svg>
