<svg width="66" height="66" viewBox="0 0 66 66" fill="none" xmlns="http://www.w3.org/2000/svg">
<path d="M45.3398 17H4.79612L2 61.2079L50 64L45.3398 17Z" fill="#ED1C2E"/>
<path d="M60.0004 33H52.0062L51.0013 17.802C50.951 17.0412 50.6129 16.328 50.0557 15.8076C49.4985 15.2871 48.7641 14.9983 48.0016 15H42.0023C42.0023 11.0218 40.4221 7.20644 37.6093 4.3934C34.7965 1.58035 30.9816 0 27.0038 0C23.0259 0 19.211 1.58035 16.3983 4.3934C13.5855 7.20644 12.0053 11.0218 12.0053 15H6.00593C5.2435 14.9983 4.50905 15.2871 3.95186 15.8076C3.39467 16.328 3.05655 17.0412 3.00623 17.802L0.00654117 62.802C-0.020596 63.2123 0.0368955 63.6238 0.175446 64.0109C0.313996 64.3981 0.530647 64.7526 0.811946 65.0525C1.09324 65.3524 1.43319 65.5913 1.81066 65.7543C2.18813 65.9173 2.59508 66.0009 3.00623 66H63.0001C63.4219 66 63.8389 65.9111 64.224 65.739C64.6091 65.5669 64.9536 65.3156 65.235 65.0013C65.5163 64.6871 65.7283 64.317 65.857 63.9153C65.9857 63.5136 66.0282 63.0893 65.9818 62.67L62.9821 35.67C62.9009 34.9359 62.5517 34.2576 62.0016 33.765C61.4514 33.2723 60.7389 32.9999 60.0004 33ZM27.0038 6C29.3905 6 31.6794 6.94821 33.3671 8.63604C35.0547 10.3239 36.0029 12.6131 36.0029 15H18.0047C18.0047 12.6131 18.9528 10.3239 20.6405 8.63604C22.3281 6.94821 24.6171 6 27.0038 6ZM6.21291 60L8.81064 21H12.0053V27C12.0053 27.7956 12.3214 28.5587 12.8839 29.1213C13.4465 29.6839 14.2094 30 15.005 30C15.8006 30 16.5636 29.6839 17.1261 29.1213C17.6887 28.5587 18.0047 27.7956 18.0047 27V21H36.0029V27C36.0029 27.7956 36.3189 28.5587 36.8815 29.1213C37.444 29.6839 38.207 30 39.0026 30C39.7981 30 40.5611 29.6839 41.1237 29.1213C41.6862 28.5587 42.0023 27.7956 42.0023 27V21H45.1939L47.7947 60H6.21291ZM53.806 60L52.4082 39H57.3157L59.6494 60H53.806Z" fill="#283A97"/>
</svg>
