<svg width="17" height="13" viewBox="0 0 17 13" fill="none" xmlns="http://www.w3.org/2000/svg">
<path d="M10.4175 12.6675C10.2839 12.7965 10.105 12.8679 9.91926 12.8663C9.73353 12.8647 9.55587 12.7902 9.42454 12.6589C9.29321 12.5275 9.21872 12.3499 9.2171 12.1641C9.21549 11.9784 9.28689 11.7995 9.41592 11.6659L13.8735 7.20836H1.41671C1.22885 7.20836 1.04868 7.13373 0.91584 7.00089C0.783002 6.86805 0.708374 6.68789 0.708374 6.50002C0.708374 6.31216 0.783002 6.13199 0.91584 5.99916C1.04868 5.86632 1.22885 5.79169 1.41671 5.79169H13.8735L9.41592 1.33415C9.28689 1.20056 9.21549 1.02163 9.2171 0.835906C9.21872 0.650184 9.29321 0.472525 9.42454 0.341194C9.55587 0.209863 9.73353 0.135369 9.91926 0.133755C10.105 0.132141 10.2839 0.203537 10.4175 0.332566L16.0842 5.99923C16.1498 6.06518 16.2018 6.1434 16.2372 6.22944C16.2732 6.31511 16.2917 6.4071 16.2917 6.50002C16.2917 6.59295 16.2732 6.68494 16.2372 6.77061C16.2018 6.85665 16.1498 6.93487 16.0842 7.00082L10.4175 12.6675Z" fill="#2F80ED"/>
</svg>
