<svg width="18" height="18" viewBox="0 0 18 18" fill="none" xmlns="http://www.w3.org/2000/svg">
<path d="M0.5 9.99981L9.5 0.499807C9.79457 0.188875 10.6227 0.370252 11 0.499807L13.5 2.99981L3 13.4998L0.5 10.9998V9.99981Z" fill="#FFD520"/>
<path d="M17.2912 6.09535L11.6666 0.470816C11.363 0.167219 10.9581 0 10.5264 0C10.0948 0 9.68987 0.16715 9.38623 0.470746L0.470816 9.3862C0.167219 9.68983 0 10.0947 0 10.5263C0 10.958 0.167219 11.3629 0.470816 11.6665L1.16439 12.3601C1.16446 12.3601 1.1645 12.3602 1.16457 12.3602C1.16464 12.3603 1.16471 12.3604 1.16478 12.3604L5.8261 17.0218H5.18067C4.97633 17.0218 4.81064 17.1874 4.81064 17.3918C4.81064 17.5961 4.97633 17.7618 5.18067 17.7618H7.2341C7.23459 17.7618 7.23504 17.7619 7.23552 17.7619C7.23601 17.7619 7.23646 17.7618 7.23695 17.7618L12.5815 17.7619C12.7858 17.7619 12.9515 17.5962 12.9515 17.3919C12.9515 17.1875 12.7858 17.0218 12.5815 17.0218L8.64509 17.0218L17.2912 8.37563C17.9199 7.74693 17.9199 6.72398 17.2912 6.09535ZM16.7679 7.85233L7.8524 16.7678C7.68889 16.9313 7.47032 17.0214 7.23688 17.0218H7.23407C7.00069 17.0214 6.78219 16.9313 6.61876 16.7678L1.94956 12.0986L10.5116 3.53651C10.6561 3.39202 10.6561 3.1577 10.5116 3.01321C10.367 2.86871 10.1328 2.86871 9.98822 3.01324L1.42622 11.5753L0.994087 11.1432C0.830302 10.9794 0.740101 10.7603 0.740101 10.5264C0.740101 10.2924 0.830302 10.0733 0.994121 9.9095L9.90954 0.994087C10.0734 0.830302 10.2924 0.740101 10.5264 0.740101C10.7604 0.740101 10.9795 0.830302 11.1433 0.994121L13.1452 2.99596L4.58305 11.5581C4.43856 11.7026 4.43856 11.9369 4.58305 12.0815C4.65532 12.1537 4.75003 12.1898 4.84471 12.1898C4.93938 12.1898 5.03409 12.1537 5.10636 12.0814L13.6685 3.5193L16.7679 6.61862C17.108 6.95875 17.1079 7.5122 16.7679 7.85233Z" fill="#283A97"/>
<path d="M9.11808 10.687C8.97358 10.5425 8.73934 10.5425 8.59474 10.687L5.68283 13.5988C5.53834 13.7433 5.53834 13.9776 5.68283 14.1222C5.7551 14.1944 5.84981 14.2306 5.94449 14.2306C6.03916 14.2306 6.13388 14.1944 6.20614 14.1222L9.11804 11.2103C9.26257 11.0657 9.26257 10.8315 9.11808 10.687Z" fill="#283A97"/>
<path d="M7.92328 13.4512L6.72898 14.6455C6.58448 14.79 6.58448 15.0243 6.72898 15.1688C6.80124 15.241 6.89595 15.2772 6.99063 15.2772C7.08538 15.2772 7.18002 15.241 7.25228 15.1688L8.44658 13.9745C8.59108 13.83 8.59108 13.5957 8.44658 13.4512C8.30209 13.3066 8.06788 13.3066 7.92328 13.4512Z" fill="#283A97"/>
<path d="M3.71964 12.4214L3.56266 12.5784C3.41816 12.7228 3.41816 12.9571 3.56266 13.1017C3.63492 13.1739 3.72963 13.2101 3.82431 13.2101C3.91899 13.2101 4.0137 13.1739 4.08596 13.1017L4.24295 12.9447C4.38744 12.8002 4.38744 12.5659 4.24295 12.4214C4.09842 12.2769 3.86417 12.2769 3.71964 12.4214Z" fill="#283A97"/>
</svg>
