<svg width="23" height="22" viewBox="0 0 23 22" fill="none" xmlns="http://www.w3.org/2000/svg">
<path d="M20.0022 11H17.3372L17.0022 5.934C16.9854 5.68039 16.8727 5.44268 16.6869 5.26919C16.5012 5.0957 16.2563 4.99945 16.0022 5H14.0022C14.0022 3.67392 13.4754 2.40215 12.5377 1.46447C11.6 0.526784 10.3283 0 9.00218 0C7.6761 0 6.40433 0.526784 5.46665 1.46447C4.52896 2.40215 4.00218 3.67392 4.00218 5H2.00218C1.74801 4.99945 1.50317 5.0957 1.31742 5.26919C1.13167 5.44268 1.01896 5.68039 1.00218 5.934L0.00218061 20.934C-0.00686603 21.0708 0.0122998 21.2079 0.0584879 21.337C0.104676 21.466 0.1769 21.5842 0.270676 21.6842C0.364452 21.7841 0.477777 21.8638 0.603615 21.9181C0.729452 21.9724 0.865116 22.0003 1.00218 22H21.0022C21.1428 22 21.2818 21.9704 21.4102 21.913C21.5386 21.8556 21.6534 21.7719 21.7472 21.6671C21.841 21.5624 21.9117 21.439 21.9546 21.3051C21.9975 21.1712 22.0116 21.0298 21.9962 20.89L20.9962 11.89C20.9691 11.6453 20.8527 11.4192 20.6693 11.255C20.4859 11.0908 20.2484 11 20.0022 11ZM9.00218 2C9.79783 2 10.5609 2.31607 11.1235 2.87868C11.6861 3.44129 12.0022 4.20435 12.0022 5H6.00218C6.00218 4.20435 6.31825 3.44129 6.88086 2.87868C7.44347 2.31607 8.20653 2 9.00218 2ZM2.07118 20L2.93718 7H4.00218V9C4.00218 9.26522 4.10754 9.51957 4.29507 9.70711C4.48261 9.89464 4.73696 10 5.00218 10C5.2674 10 5.52175 9.89464 5.70929 9.70711C5.89682 9.51957 6.00218 9.26522 6.00218 9V7H12.0022V9C12.0022 9.26522 12.1075 9.51957 12.2951 9.70711C12.4826 9.89464 12.737 10 13.0022 10C13.2674 10 13.5218 9.89464 13.7093 9.70711C13.8968 9.51957 14.0022 9.26522 14.0022 9V7H15.0662L15.9332 20H2.07118ZM17.9372 20L17.4712 13H19.1072L19.8852 20H17.9372Z" fill="#BDBDBD"/>
</svg>
