<svg width="11" height="11" viewBox="0 0 11 11" fill="none" xmlns="http://www.w3.org/2000/svg">
<path d="M10.083 2.29183H7.79134V0.916829C7.79134 0.795272 7.74305 0.678693 7.6571 0.592739C7.57114 0.506785 7.45456 0.458496 7.33301 0.458496H3.66634C3.54478 0.458496 3.4282 0.506785 3.34225 0.592739C3.2563 0.678693 3.20801 0.795272 3.20801 0.916829V2.29183H0.916341C0.794784 2.29183 0.678205 2.34012 0.59225 2.42607C0.506296 2.51203 0.458008 2.6286 0.458008 2.75016C0.458008 2.87172 0.506296 2.9883 0.59225 3.07425C0.678205 3.16021 0.794784 3.2085 0.916341 3.2085H1.4283L2.29501 10.1403C2.30886 10.2512 2.3627 10.3531 2.44642 10.427C2.53014 10.501 2.63798 10.5418 2.74967 10.5418H8.24967C8.36137 10.5418 8.4692 10.501 8.55293 10.427C8.63665 10.3531 8.69049 10.2512 8.70434 10.1403L9.57105 3.2085H10.083C10.2046 3.2085 10.3211 3.16021 10.4071 3.07425C10.4931 2.9883 10.5413 2.87172 10.5413 2.75016C10.5413 2.6286 10.4931 2.51203 10.4071 2.42607C10.3211 2.34012 10.2046 2.29183 10.083 2.29183ZM4.12467 1.37516H6.87467V2.29183H4.12467V1.37516ZM7.84497 9.62516H3.15438L2.3523 3.2085H8.64705L7.84497 9.62516Z" fill="#BDBDBD"/>
</svg>
