<svg width="27" height="26" viewBox="0 0 27 26" fill="none" xmlns="http://www.w3.org/2000/svg">
<path d="M2.25 6.50002C2.25 6.2127 2.36853 5.93715 2.5795 5.73399C2.79048 5.53082 3.07663 5.41669 3.375 5.41669H23.625C23.9234 5.41669 24.2095 5.53082 24.4205 5.73399C24.6315 5.93715 24.75 6.2127 24.75 6.50002C24.75 6.78734 24.6315 7.06289 24.4205 7.26605C24.2095 7.46922 23.9234 7.58335 23.625 7.58335H3.375C3.07663 7.58335 2.79048 7.46922 2.5795 7.26605C2.36853 7.06289 2.25 6.78734 2.25 6.50002ZM3.375 14.0834H23.625C23.9234 14.0834 24.2095 13.9692 24.4205 13.7661C24.6315 13.5629 24.75 13.2873 24.75 13C24.75 12.7127 24.6315 12.4372 24.4205 12.234C24.2095 12.0308 23.9234 11.9167 23.625 11.9167H3.375C3.07663 11.9167 2.79048 12.0308 2.5795 12.234C2.36853 12.4372 2.25 12.7127 2.25 13C2.25 13.2873 2.36853 13.5629 2.5795 13.7661C2.79048 13.9692 3.07663 14.0834 3.375 14.0834ZM3.375 20.5834H23.625C23.9234 20.5834 24.2095 20.4692 24.4205 20.2661C24.6315 20.0629 24.75 19.7873 24.75 19.5C24.75 19.2127 24.6315 18.9372 24.4205 18.734C24.2095 18.5308 23.9234 18.4167 23.625 18.4167H3.375C3.07663 18.4167 2.79048 18.5308 2.5795 18.734C2.36853 18.9372 2.25 19.2127 2.25 19.5C2.25 19.7873 2.36853 20.0629 2.5795 20.2661C2.79048 20.4692 3.07663 20.5834 3.375 20.5834Z" fill="#283A97"/>
</svg>
