<svg width="18" height="14" viewBox="0 0 18 14" fill="none" xmlns="http://www.w3.org/2000/svg">
<g clip-path="url(#clip0)">
<path d="M15.5 0.5H3.5H3C2.33333 1.33333 1 3.2 1 4C1 5 2 6 3 6C4 6 5 5.5 5 4C5 5 6 6 7 6C8 6 9 5.5 9.5 4C9.5 5.5 10.5 6 11.5 6C12.5 6 13 5.5 13.5 4.5C13.5 5.5 14.5 6 15.5 6C17 6 17.1667 4.66667 17.5 4L15.5 0.5Z" fill="#FFD520"/>
<path d="M16.9814 13.495H16.6982V6.00322C17.338 5.58572 17.7627 4.85813 17.7627 4.03088C17.7627 3.98711 17.7514 3.94368 17.7298 3.90563L15.7539 0.399317C15.6151 0.152858 15.3551 0 15.0756 0H3.44982C3.17025 0 2.91027 0.152858 2.77148 0.399317L0.795566 3.90597C0.773984 3.94401 0.762695 3.98711 0.762695 4.03122C0.762695 4.85813 1.1877 5.58606 1.82719 6.00356V13.495H1.54396C1.4065 13.495 1.29494 13.6081 1.29494 13.7475C1.29494 13.8869 1.4065 14 1.54396 14H16.9814C17.1189 14 17.2304 13.8869 17.2304 13.7475C17.2304 13.6078 17.1189 13.495 16.9814 13.495ZM1.27801 4.28374H2.07621C2.21367 4.28374 2.32523 4.17061 2.32523 4.03122C2.32523 3.89183 2.21367 3.7787 2.07621 3.7787H1.4407L3.20379 0.649816C3.25426 0.560593 3.34822 0.505038 3.44982 0.505038H15.0752C15.1765 0.505038 15.2708 0.560593 15.3213 0.649816L17.0844 3.7787H16.4488C16.3114 3.7787 16.1998 3.89183 16.1998 4.03122C16.1998 4.17061 16.3114 4.28374 16.4488 4.28374H17.2474C17.1255 5.17866 16.3665 5.87057 15.4508 5.87057C14.535 5.87057 13.7763 5.179 13.6545 4.28374H15.3844C15.5218 4.28374 15.6334 4.17061 15.6334 4.03122C15.6334 3.89183 15.5218 3.7787 15.3844 3.7787H3.14104C3.00357 3.7787 2.89201 3.89183 2.89201 4.03122C2.89201 4.17061 3.00357 4.28374 3.14104 4.28374H4.87059C4.74873 5.17866 3.99004 5.87057 3.0743 5.87057C2.15889 5.87023 1.39953 5.17866 1.27801 4.28374ZM13.1216 4.28374C12.9997 5.17866 12.241 5.87057 11.3253 5.87057C10.4095 5.87057 9.65084 5.179 9.52898 4.28374H13.1216ZM8.99607 4.28374C8.87422 5.17866 8.11553 5.87057 7.19979 5.87057C6.28404 5.87057 5.52535 5.179 5.4035 4.28374H8.99607ZM2.32523 6.24833C2.56031 6.33015 2.81232 6.37527 3.0743 6.37527C3.9741 6.37527 4.75504 5.85137 5.13721 5.08877C5.51904 5.85137 6.30031 6.37527 7.20012 6.37527C8.09992 6.37527 8.88086 5.85137 9.26303 5.08877C9.64486 5.85137 10.4261 6.37527 11.3259 6.37527C12.2257 6.37527 13.0067 5.85137 13.3888 5.08877C13.7707 5.85137 14.552 6.37527 15.4518 6.37527C15.7141 6.37527 15.9657 6.33015 16.2008 6.24833V13.495H15.3681V7.26986C15.3681 7.13047 15.2565 7.01734 15.1191 7.01734H11.9253C11.7878 7.01734 11.6762 7.13047 11.6762 7.26986V13.495H2.32523V6.24833ZM14.869 12.1455H12.1733V7.52238H14.869V12.1455ZM12.1733 12.6505H14.869V13.495H12.1733V12.6505Z" fill="#283A97"/>
<path d="M10.5934 7.01758H3.40692C3.26946 7.01758 3.1579 7.13071 3.1579 7.2701V12.3982C3.1579 12.5376 3.26946 12.6508 3.40692 12.6508H10.5934C10.7309 12.6508 10.8424 12.5376 10.8424 12.3982V7.2701C10.8424 7.13071 10.7309 7.01758 10.5934 7.01758ZM10.3444 12.1457H3.65594V7.52262H10.3444V12.1457Z" fill="#283A97"/>
</g>
<defs>
<clipPath id="clip0">
<rect width="17" height="14" fill="white" transform="translate(0.762695)"/>
</clipPath>
</defs>
</svg>
