<svg width="50" height="50" viewBox="0 0 50 50" fill="none" xmlns="http://www.w3.org/2000/svg">
<path d="M42.6917 20.9167C41.6639 17.9556 39.9092 15.2998 37.5883 13.193C35.2675 11.0862 32.4549 9.59578 29.4084 8.85842C29.9568 8.50511 30.5977 8.3224 31.25 8.33342C31.8025 8.33342 32.3325 8.11392 32.7232 7.72322C33.1139 7.33252 33.3333 6.80262 33.3333 6.25008C33.3333 5.69755 33.1139 5.16764 32.7232 4.77694C32.3325 4.38624 31.8025 4.16675 31.25 4.16675C29.8319 4.13622 28.435 4.51519 27.2268 5.25825C26.0185 6.00131 25.0501 7.07696 24.4375 8.35633C20.6455 8.46613 16.9765 9.72625 13.9173 11.9695C10.858 14.2128 8.55312 17.3332 7.30835 20.9167C5.84684 21.1578 4.51845 21.9102 3.56006 23.0396C2.60166 24.169 2.07556 25.6022 2.07556 27.0834C2.07556 28.5647 2.60166 29.9978 3.56006 31.1272C4.51845 32.2567 5.84684 33.009 7.30835 33.2501C8.58523 36.925 10.9748 40.1111 14.1452 42.3659C17.3157 44.6207 21.1096 45.8322 25 45.8322C28.8905 45.8322 32.6844 44.6207 35.8548 42.3659C39.0252 40.1111 41.4148 36.925 42.6917 33.2501C44.1532 33.009 45.4816 32.2567 46.44 31.1272C47.3984 29.9978 47.9245 28.5647 47.9245 27.0834C47.9245 25.6022 47.3984 24.169 46.44 23.0396C45.4816 21.9102 44.1532 21.1578 42.6917 20.9167ZM41.6813 29.1667L41.3959 29.1292C40.89 29.0659 40.3784 29.189 39.9566 29.4754C39.5349 29.7618 39.2319 30.1919 39.1042 30.6855C38.3072 33.8244 36.4866 36.608 33.9304 38.5963C31.3741 40.5845 28.2281 41.664 24.9896 41.664C21.7511 41.664 18.6051 40.5845 16.0488 38.5963C13.4926 36.608 11.672 33.8244 10.875 30.6855C10.7611 30.2368 10.5011 29.8389 10.1359 29.5544C9.77075 29.27 9.32124 29.1153 8.85835 29.1147C8.77085 29.1147 8.68335 29.1147 8.59377 29.1292L8.33335 29.1667C7.78082 29.169 7.25003 28.9516 6.85777 28.5624C6.46551 28.1733 6.24389 27.6443 6.24168 27.0917C6.23947 26.5392 6.45685 26.0084 6.84599 25.6162C7.23512 25.2239 7.76415 25.0023 8.31668 25.0001L8.59377 25.0355C9.09953 25.1022 9.61221 24.9811 10.0346 24.695C10.457 24.4089 10.7597 23.9778 10.8854 23.4834C11.6023 20.6691 13.1459 18.1342 15.3171 16.2054C17.4883 14.2767 20.1875 13.0427 23.0667 12.6626C22.9717 13.2986 22.9216 13.9404 22.9167 14.5834C22.9167 15.136 23.1362 15.6659 23.5269 16.0566C23.9176 16.4473 24.4475 16.6667 25 16.6667C25.5525 16.6667 26.0825 16.4473 26.4732 16.0566C26.8639 15.6659 27.0834 15.136 27.0834 14.5834C27.0999 13.9468 27.1696 13.3126 27.2917 12.6876C30.102 13.1324 32.7201 14.3917 34.8219 16.3094C36.9237 18.2272 38.4169 20.7193 39.1167 23.4772C39.2424 23.9716 39.5451 24.4027 39.9675 24.6888C40.3899 24.9748 40.9026 25.096 41.4083 25.0292L41.6792 25.0001C42.2317 25.0001 42.7616 25.2196 43.1523 25.6103C43.543 26.001 43.7625 26.5309 43.7625 27.0834C43.7625 27.636 43.543 28.1659 43.1523 28.5566C42.7616 28.9473 42.2317 29.1667 41.6792 29.1667H41.6813ZM21.875 27.0834C21.875 27.7015 21.6917 28.3057 21.3484 28.8196C21.005 29.3335 20.5169 29.734 19.9459 29.9705C19.3749 30.2071 18.7465 30.2689 18.1404 30.1484C17.5342 30.0278 16.9773 29.7302 16.5403 29.2931C16.1033 28.8561 15.8056 28.2993 15.6851 27.6931C15.5645 27.0869 15.6264 26.4585 15.8629 25.8875C16.0994 25.3165 16.5 24.8285 17.0139 24.4851C17.5278 24.1417 18.132 23.9584 18.75 23.9584C19.5788 23.9584 20.3737 24.2877 20.9597 24.8737C21.5458 25.4598 21.875 26.2546 21.875 27.0834ZM34.375 27.0834C34.375 27.7015 34.1917 28.3057 33.8484 28.8196C33.505 29.3335 33.0169 29.734 32.4459 29.9705C31.8749 30.2071 31.2465 30.2689 30.6404 30.1484C30.0342 30.0278 29.4773 29.7302 29.0403 29.2931C28.6033 28.8561 28.3056 28.2993 28.1851 27.6931C28.0645 27.0869 28.1264 26.4585 28.3629 25.8875C28.5994 25.3165 29 24.8285 29.5139 24.4851C30.0278 24.1417 30.6319 23.9584 31.25 23.9584C32.0788 23.9584 32.8737 24.2877 33.4597 24.8737C34.0458 25.4598 34.375 26.2546 34.375 27.0834Z" fill="#283A97"/>
<path d="M25 15.5304C25 12.8789 25.3788 6.81824 31.4394 6.06067" stroke="#ED1C2E" stroke-width="6" stroke-linecap="round" stroke-linejoin="round"/>
</svg>
