<svg width="51" height="51" viewBox="0 0 51 51" fill="none" xmlns="http://www.w3.org/2000/svg">
<path d="M30 17H21L21.5 29.5H29.5L30 17Z" fill="#ED1C2E"/>
<path d="M20.1875 7.4375C20.1875 6.38679 20.4991 5.35967 21.0828 4.48604C21.6666 3.6124 22.4963 2.93148 23.467 2.52939C24.4377 2.1273 25.5059 2.0221 26.5364 2.22708C27.5669 2.43206 28.5135 2.93803 29.2565 3.681C29.9995 4.42396 30.5054 5.37056 30.7104 6.40109C30.9154 7.43161 30.8102 8.49978 30.4081 9.47051C30.006 10.4412 29.3251 11.2709 28.4515 11.8547C27.5778 12.4384 26.5507 12.75 25.5 12.75C24.091 12.75 22.7398 12.1903 21.7435 11.194C20.7472 10.1977 20.1875 8.84647 20.1875 7.4375ZM6.375 17C6.375 16.4364 6.59888 15.8959 6.9974 15.4974C7.39591 15.0989 7.93641 14.875 8.5 14.875H42.5C43.0636 14.875 43.6041 15.0989 44.0026 15.4974C44.4011 15.8959 44.625 16.4364 44.625 17C44.625 17.5636 44.4011 18.1041 44.0026 18.5026C43.6041 18.9011 43.0636 19.125 42.5 19.125H31.875V46.75C31.875 47.3136 31.6511 47.8541 31.2526 48.2526C30.8541 48.6511 30.3136 48.875 29.75 48.875C29.1864 48.875 28.6459 48.6511 28.2474 48.2526C27.8489 47.8541 27.625 47.3136 27.625 46.75V31.875H23.375V46.75C23.375 47.3136 23.1511 47.8541 22.7526 48.2526C22.3541 48.6511 21.8136 48.875 21.25 48.875C20.6864 48.875 20.1459 48.6511 19.7474 48.2526C19.3489 47.8541 19.125 47.3136 19.125 46.75V19.125H8.5C7.93641 19.125 7.39591 18.9011 6.9974 18.5026C6.59888 18.1041 6.375 17.5636 6.375 17ZM23.375 27.625H27.625V19.125H23.375V27.625Z" fill="#283A97"/>
</svg>
