<svg width="22" height="21" viewBox="0 0 22 21" fill="none" xmlns="http://www.w3.org/2000/svg">
<path d="M21 5.01161H19.894C19.9693 4.68374 20.0049 4.34799 20 4.01161C20.0425 3.47553 19.9681 2.93661 19.7821 2.43203C19.5961 1.92746 19.3029 1.46924 18.9226 1.08898C18.5424 0.708719 18.0842 0.415476 17.5796 0.229475C17.075 0.0434746 16.5361 -0.0308557 16 0.0116118C13.836 0.0116118 12.031 2.28261 11 3.93961C9.969 2.28261 8.164 0.0116118 6 0.0116118C5.46391 -0.0308557 4.92499 0.0434746 4.42042 0.229475C3.91584 0.415476 3.45762 0.708719 3.07737 1.08898C2.69711 1.46924 2.40386 1.92746 2.21786 2.43203C2.03186 2.93661 1.95753 3.47553 2 4.01161C1.99508 4.34799 2.03067 4.68374 2.106 5.01161H1C0.734784 5.01161 0.48043 5.11697 0.292893 5.30451C0.105357 5.49204 0 5.7464 0 6.01161V11.0116C0 11.2768 0.105357 11.5312 0.292893 11.7187C0.48043 11.9063 0.734784 12.0116 1 12.0116H2V19.0116C2 19.2768 2.10536 19.5312 2.29289 19.7187C2.48043 19.9063 2.73478 20.0116 3 20.0116H19C19.2652 20.0116 19.5196 19.9063 19.7071 19.7187C19.8946 19.5312 20 19.2768 20 19.0116V12.0116H21C21.2652 12.0116 21.5196 11.9063 21.7071 11.7187C21.8946 11.5312 22 11.2768 22 11.0116V6.01161C22 5.7464 21.8946 5.49204 21.7071 5.30451C21.5196 5.11697 21.2652 5.01161 21 5.01161ZM6 2.01161C7.113 2.01161 8.419 3.59461 9.308 5.01161H6.556C4 5.01161 4 4.61161 4 4.01161C4 2.21961 5.142 2.01161 6 2.01161ZM10 18.0116H4V12.0116H10V18.0116ZM10 10.0116H2V7.01161H10V10.0116ZM16 2.01161C16.858 2.01161 18 2.21961 18 4.01161C18 4.61161 18 5.01161 15.444 5.01161H12.692C13.581 3.59461 14.887 2.01161 16 2.01161ZM18 18.0116H12V12.0116H18V18.0116ZM20 10.0116H12V7.01161H20V10.0116Z" fill="white"/>
<path fill-rule="evenodd" clip-rule="evenodd" d="M9.308 5.0116C8.419 3.5946 7.113 2.0116 6 2.0116C5.142 2.0116 4 2.2196 4 4.0116C4 4.6116 4 5.0116 6.556 5.0116H9.308ZM18 4.0116C18 2.2196 16.858 2.0116 16 2.0116C14.887 2.0116 13.581 3.5946 12.692 5.0116H15.444C18 5.0116 18 4.6116 18 4.0116Z" fill="#ED1C2E"/>
</svg>
