<svg width="21" height="12" viewBox="0 0 21 12" fill="none" xmlns="http://www.w3.org/2000/svg">
<path d="M2.5 6.5V3L3.5 2.5V1.5H14.5L15 2.5L16 3V6L15 6.5L14.5 7.5H3.5L3 6.5H2.5Z" fill="#FFD520"/>
<path d="M20.4893 3.15922H19.1611V1.94829C19.1611 1.81081 19.0389 1.69898 18.8881 1.69898H18.8877H17.5596V0.486615C17.5596 0.349138 17.4373 0.237305 17.2865 0.237305H17.2861H1.03613C0.885352 0.237305 0.762695 0.348782 0.762695 0.486259V0.486615V8.73381C0.762695 8.87164 0.884961 8.98312 1.03613 8.98312H2.36426V10.1941C2.36387 10.3315 2.48613 10.4434 2.63691 10.4437C2.6373 10.4437 2.6373 10.4437 2.6377 10.4437H3.96582V11.6547C3.96582 11.7921 4.08809 11.904 4.23887 11.904H4.23926H20.4893C20.64 11.904 20.7623 11.7929 20.7627 11.6557V3.40854C20.7627 3.2707 20.6404 3.15922 20.4893 3.15922ZM1.30957 0.736282H17.0115V8.4845H1.30957V0.736282ZM2.91191 8.98312H17.285C17.4361 8.98312 17.5584 8.87164 17.5584 8.73381V2.19724H18.6139V9.9451H2.91191V8.98312ZM20.2158 11.4061H4.51387V10.4437H18.8877C19.0385 10.4437 19.1611 10.3322 19.1611 10.1948V10.1944V3.65785H20.2158V11.4061Z" fill="#283A97"/>
<path d="M3.39824 7.59405C3.39824 7.73153 3.52051 7.84336 3.67129 7.84336H3.67168H14.6494C14.8002 7.84336 14.9229 7.73189 14.9229 7.59441V7.59405C14.9236 7.03417 15.4209 6.58078 16.035 6.58007C16.1857 6.58007 16.3084 6.46859 16.3084 6.33112V6.33076V2.88991C16.3084 2.75244 16.1861 2.6406 16.0354 2.6406H16.035C15.4209 2.63989 14.9232 2.18614 14.9229 1.62626C14.9229 1.48879 14.8006 1.37695 14.6498 1.37695H14.6494H3.67168C3.5209 1.37695 3.39824 1.48843 3.39824 1.62591V1.62626C3.39785 2.18614 2.9002 2.63989 2.28613 2.6406C2.13535 2.6406 2.0127 2.75208 2.0127 2.88956V2.88991V6.33076C2.0127 6.46824 2.13496 6.58007 2.28574 6.58007H2.28613C2.9002 6.58078 3.39746 7.03417 3.39824 7.59405ZM2.55957 3.11857C3.25762 3.01101 3.80449 2.51239 3.92246 1.87593H14.3982C14.5162 2.51239 15.0631 3.01101 15.7611 3.11857V6.10211C15.0631 6.20967 14.5162 6.70829 14.3982 7.34474H3.92246C3.80449 6.70829 3.25762 6.20967 2.55957 6.10211V3.11857Z" fill="#283A97"/>
<path d="M9.67079 5.49195H8.02509C7.87391 5.49195 7.75165 5.60342 7.75165 5.74126C7.75165 5.87909 7.87391 5.99057 8.02509 5.99057H8.88759V6.45428C8.88759 6.59212 9.00985 6.70359 9.16102 6.70359C9.31219 6.70359 9.43446 6.59212 9.43446 6.45428V5.99057H9.67118C10.1673 5.99021 10.5692 5.62372 10.5696 5.1714V4.6101C10.5692 4.47227 10.4466 4.36114 10.2954 4.3615H8.29813V4.04915C8.29852 3.87214 8.45555 3.72896 8.6497 3.72861H10.2954C10.4466 3.72861 10.5688 3.61713 10.5688 3.4793C10.5688 3.34146 10.4466 3.22999 10.2954 3.22999H9.43446V2.76591C9.43446 2.62808 9.31219 2.5166 9.16102 2.5166C9.00985 2.5166 8.88759 2.62808 8.88759 2.76591V3.22963H8.65009C8.15399 3.23034 7.75243 3.59647 7.75165 4.04879V4.6101C7.75165 4.74793 7.87391 4.85941 8.02509 4.85941H10.0224V5.1714C10.0224 5.34806 9.86493 5.49195 9.67079 5.49195Z" fill="#283A97"/>
<path d="M5.80161 5.37067C6.26216 5.37067 6.63521 5.03018 6.63521 4.61063C6.63521 4.19072 6.26177 3.85059 5.80161 3.85059C5.34146 3.85059 4.96802 4.19107 4.96802 4.61063C4.96841 5.03018 5.34146 5.36996 5.80161 5.37067ZM5.80161 4.34885C5.96021 4.34885 6.08833 4.46603 6.08833 4.61027C6.08833 4.75487 5.95982 4.87169 5.80161 4.87169C5.64341 4.87169 5.51489 4.75452 5.51489 4.61027C5.51489 4.46603 5.64341 4.34885 5.80161 4.34885Z" fill="#283A97"/>
</svg>
