<svg width="54" height="66" viewBox="0 0 54 66" fill="none" xmlns="http://www.w3.org/2000/svg">
<rect x="15.1538" y="4.23077" width="23.6923" height="8.46154" fill="#ED1C2E"/>
<path d="M53.2308 9C53.2308 8.20435 52.9237 7.44129 52.3771 6.87868C51.8305 6.31607 51.0892 6 50.3162 6H41.5726V3C41.5726 2.20435 41.2656 1.44129 40.719 0.87868C40.1724 0.31607 39.4311 0 38.6581 0H15.3419C14.5689 0 13.8276 0.31607 13.281 0.87868C12.7344 1.44129 12.4273 2.20435 12.4273 3V6H3.68376C2.91077 6 2.16945 6.31607 1.62287 6.87868C1.07629 7.44129 0.769226 8.20435 0.769226 9V63C0.769226 63.7957 1.07629 64.5587 1.62287 65.1213C2.16945 65.6839 2.91077 66 3.68376 66H50.3162C51.0892 66 51.8305 65.6839 52.3771 65.1213C52.9237 64.5587 53.2308 63.7957 53.2308 63V9ZM18.2564 6H35.7436V12H18.2564V6ZM47.4017 60H6.59829V12H12.4273V15C12.4273 15.7956 12.7344 16.5587 13.281 17.1213C13.8276 17.6839 14.5689 18 15.3419 18H38.6581C39.4311 18 40.1724 17.6839 40.719 17.1213C41.2656 16.5587 41.5726 15.7956 41.5726 15V12H47.4017V60ZM29.9145 51C29.9145 51.7957 29.6075 52.5587 29.0609 53.1213C28.5143 53.6839 27.773 54 27 54H15.3419C14.5689 54 13.8276 53.6839 13.281 53.1213C12.7344 52.5587 12.4273 51.7957 12.4273 51C12.4273 50.2043 12.7344 49.4413 13.281 48.8787C13.8276 48.3161 14.5689 48 15.3419 48H27C27.773 48 28.5143 48.3161 29.0609 48.8787C29.6075 49.4413 29.9145 50.2043 29.9145 51ZM41.5726 39C41.5726 39.7957 41.2656 40.5587 40.719 41.1213C40.1724 41.6839 39.4311 42 38.6581 42H15.3419C14.5689 42 13.8276 41.6839 13.281 41.1213C12.7344 40.5587 12.4273 39.7957 12.4273 39C12.4273 38.2043 12.7344 37.4413 13.281 36.8787C13.8276 36.3161 14.5689 36 15.3419 36H38.6581C39.4311 36 40.1724 36.3161 40.719 36.8787C41.2656 37.4413 41.5726 38.2043 41.5726 39ZM41.5726 27C41.5726 27.7956 41.2656 28.5587 40.719 29.1213C40.1724 29.6839 39.4311 30 38.6581 30H15.3419C14.5689 30 13.8276 29.6839 13.281 29.1213C12.7344 28.5587 12.4273 27.7956 12.4273 27C12.4273 26.2044 12.7344 25.4413 13.281 24.8787C13.8276 24.3161 14.5689 24 15.3419 24H38.6581C39.4311 24 40.1724 24.3161 40.719 24.8787C41.2656 25.4413 41.5726 26.2044 41.5726 27Z" fill="#283A97"/>
</svg>
