<svg width="35" height="23" viewBox="0 0 35 23" fill="none" xmlns="http://www.w3.org/2000/svg">
<rect x="5" y="2" width="8" height="3" fill="#ED1C2E"/>
<path d="M18 3C18 2.73478 17.8946 2.48043 17.7071 2.29289C17.5196 2.10536 17.2652 2 17 2H14V1C14 0.734784 13.8946 0.48043 13.7071 0.292893C13.5196 0.105357 13.2652 0 13 0H5C4.73478 0 4.48043 0.105357 4.29289 0.292893C4.10536 0.48043 4 0.734784 4 1V2H1C0.734784 2 0.48043 2.10536 0.292893 2.29289C0.105357 2.48043 0 2.73478 0 3V21C0 21.2652 0.105357 21.5196 0.292893 21.7071C0.48043 21.8946 0.734784 22 1 22H17C17.2652 22 17.5196 21.8946 17.7071 21.7071C17.8946 21.5196 18 21.2652 18 21V3ZM6 2H12V4H6V2ZM16 20H2V4H4V5C4 5.26522 4.10536 5.51957 4.29289 5.70711C4.48043 5.89464 4.73478 6 5 6H13C13.2652 6 13.5196 5.89464 13.7071 5.70711C13.8946 5.51957 14 5.26522 14 5V4H16V20ZM10 17C10 17.2652 9.89464 17.5196 9.70711 17.7071C9.51957 17.8946 9.26522 18 9 18H5C4.73478 18 4.48043 17.8946 4.29289 17.7071C4.10536 17.5196 4 17.2652 4 17C4 16.7348 4.10536 16.4804 4.29289 16.2929C4.48043 16.1054 4.73478 16 5 16H9C9.26522 16 9.51957 16.1054 9.70711 16.2929C9.89464 16.4804 10 16.7348 10 17ZM14 13C14 13.2652 13.8946 13.5196 13.7071 13.7071C13.5196 13.8946 13.2652 14 13 14H5C4.73478 14 4.48043 13.8946 4.29289 13.7071C4.10536 13.5196 4 13.2652 4 13C4 12.7348 4.10536 12.4804 4.29289 12.2929C4.48043 12.1054 4.73478 12 5 12H13C13.2652 12 13.5196 12.1054 13.7071 12.2929C13.8946 12.4804 14 12.7348 14 13ZM14 9C14 9.26522 13.8946 9.51957 13.7071 9.70711C13.5196 9.89464 13.2652 10 13 10H5C4.73478 10 4.48043 9.89464 4.29289 9.70711C4.10536 9.51957 4 9.26522 4 9C4 8.73478 4.10536 8.48043 4.29289 8.29289C4.48043 8.10536 4.73478 8 5 8H13C13.2652 8 13.5196 8.10536 13.7071 8.29289C13.8946 8.48043 14 8.73478 14 9Z" fill="#283A97"/>
<path d="M28 18C25.5 15.1667 20.3 9.3 19.5 8.5L15 13.5V18L19 22L24 21.5L28 18Z" fill="#ED1C2E"/>
<path d="M21.1213 23.0001C22.0556 23.0013 22.9809 22.8181 23.8442 22.461C24.7075 22.1039 25.4919 21.5799 26.1523 20.9191L31.9203 15.1521C33.2554 13.8174 34.0056 12.007 34.0059 10.1192C34.0062 8.23132 33.2565 6.42069 31.9218 5.08559C30.5871 3.75049 28.7767 3.00028 26.8889 3C25.001 2.99972 23.1904 3.74939 21.8553 5.08409L16.0883 10.8511C15.0916 11.8459 14.4126 13.1142 14.1373 14.4952C13.862 15.8762 14.0027 17.3079 14.5417 18.6088C15.0806 19.9098 15.9936 21.0216 17.1649 21.8033C18.3362 22.585 19.7131 23.0015 21.1213 23.0001ZM23.2693 6.50009C23.7407 6.00887 24.3054 5.61666 24.9303 5.34645C25.5552 5.07623 26.2278 4.93344 26.9086 4.92644C27.5894 4.91944 28.2647 5.04837 28.8951 5.30567C29.5254 5.56298 30.0981 5.94349 30.5795 6.42491C31.0609 6.90633 31.4414 7.47898 31.6987 8.10932C31.956 8.73965 32.0849 9.415 32.0779 10.0958C32.0709 10.7766 31.9282 11.4491 31.6579 12.0741C31.3877 12.699 30.9955 13.2637 30.5043 13.7351L28.3273 15.9111L21.0933 8.67509L23.2693 6.50009ZM17.5043 12.2651L19.6793 10.0891L26.9153 17.3251L24.7383 19.5001C23.7746 20.4388 22.48 20.9601 21.1348 20.9513C19.7895 20.9424 18.5019 20.404 17.5507 19.4527C16.5995 18.5014 16.0613 17.2137 16.0526 15.8684C16.0439 14.5232 16.5655 13.2286 17.5043 12.2651Z" fill="#283A97"/>
</svg>
