<svg width="18" height="22" viewBox="0 0 18 22" fill="none" xmlns="http://www.w3.org/2000/svg">
<path d="M8 6.99904H6V4.99904H8V2.99904H10V4.99904H12V6.99904H10V8.99904H8V6.99904ZM1 21.999C0.734784 21.999 0.48043 21.8937 0.292893 21.7062C0.105357 21.5186 0 21.2643 0 20.999V5.99904C0 5.73383 0.105357 5.47947 0.292893 5.29194C0.48043 5.1044 0.734784 4.99904 1 4.99904H3.09C3.32503 3.60155 4.04768 2.33256 5.12965 1.41737C6.21161 0.502175 7.58288 0 9 0C10.4171 0 11.7884 0.502175 12.8704 1.41737C13.9523 2.33256 14.675 3.60155 14.91 4.99904H17C17.2652 4.99904 17.5196 5.1044 17.7071 5.29194C17.8946 5.47947 18 5.73383 18 5.99904V20.999C18 21.2643 17.8946 21.5186 17.7071 21.7062C17.5196 21.8937 17.2652 21.999 17 21.999H1ZM10 19.999V15.999H8V19.999H10ZM5 5.99904C5 6.79017 5.2346 7.56353 5.67412 8.22132C6.11365 8.87912 6.73836 9.39181 7.46927 9.69456C8.20017 9.99731 9.00444 10.0765 9.78036 9.92218C10.5563 9.76784 11.269 9.38688 11.8284 8.82747C12.3878 8.26806 12.7688 7.55533 12.9231 6.77941C13.0775 6.00348 12.9983 5.19921 12.6955 4.46831C12.3928 3.73741 11.8801 3.11269 11.2223 2.67317C10.5645 2.23364 9.79113 1.99904 9 1.99904C7.93913 1.99904 6.92172 2.42047 6.17157 3.17062C5.42143 3.92076 5 4.93818 5 5.99904ZM2 19.999H6V14.999C6 14.7338 6.10536 14.4795 6.29289 14.2919C6.48043 14.1044 6.73478 13.999 7 13.999H11C11.2652 13.999 11.5196 14.1044 11.7071 14.2919C11.8946 14.4795 12 14.7338 12 14.999V19.999H16V6.99904H14.91C14.675 8.39654 13.9523 9.66553 12.8704 10.5807C11.7884 11.4959 10.4171 11.9981 9 11.9981C7.58288 11.9981 6.21161 11.4959 5.12965 10.5807C4.04768 9.66553 3.32503 8.39654 3.09 6.99904H2V19.999Z" fill="#BDBDBD"/>
</svg>
