<svg width="16" height="16" viewBox="0 0 16 16" fill="none" xmlns="http://www.w3.org/2000/svg">
<g clip-path="url(#clip0)">
<path d="M2.76129 11.3332L1.33329 11.3332C1.15648 11.3332 0.986912 11.4034 0.861888 11.5284C0.736864 11.6535 0.666626 11.823 0.666626 11.9998C0.666626 12.1766 0.736864 12.3462 0.861888 12.4712C0.986912 12.5963 1.15648 12.6665 1.33329 12.6665L2.76129 12.6665C2.92355 13.2949 3.30945 13.8426 3.84663 14.2069C4.38382 14.5712 5.03542 14.727 5.67929 14.6452C6.32317 14.5635 6.91511 14.2497 7.34417 13.7627C7.77323 13.2756 8.00995 12.6489 8.00995 11.9998C8.00995 11.3508 7.77323 10.724 7.34417 10.237C6.91511 9.75 6.32317 9.4362 5.67929 9.35442C5.03542 9.27264 4.38382 9.42849 3.84663 9.79276C3.30944 10.157 2.92355 10.7047 2.76129 11.3332ZM6.66663 11.9998C6.66663 12.2635 6.58843 12.5213 6.44192 12.7406C6.29541 12.9599 6.08717 13.1308 5.84354 13.2317C5.5999 13.3326 5.33181 13.359 5.07317 13.3075C4.81453 13.2561 4.57695 13.1291 4.39048 12.9426C4.20401 12.7562 4.07703 12.5186 4.02558 12.26C3.97413 12.0013 4.00054 11.7332 4.10145 11.4896C4.20237 11.246 4.37327 11.0377 4.59253 10.8912C4.8118 10.7447 5.06958 10.6665 5.33329 10.6665C5.68691 10.6665 6.02605 10.807 6.2761 11.057C6.52615 11.3071 6.66663 11.6462 6.66663 11.9998ZM15.3333 11.9998C15.3333 12.1766 15.2631 12.3462 15.138 12.4712C15.013 12.5963 14.8434 12.6665 14.6666 12.6665L9.99996 12.6665C9.82315 12.6665 9.65358 12.5963 9.52855 12.4712C9.40353 12.3462 9.33329 12.1766 9.33329 11.9998C9.33329 11.823 9.40353 11.6535 9.52855 11.5284C9.65358 11.4034 9.82315 11.3332 9.99996 11.3332L14.6666 11.3332C14.8434 11.3332 15.013 11.4034 15.138 11.5284C15.2631 11.6535 15.3333 11.823 15.3333 11.9998ZM0.666626 3.99983C0.666626 4.17664 0.736863 4.34621 0.861888 4.47124C0.986912 4.59626 1.15648 4.6665 1.33329 4.6665L5.42796 4.6665C5.59022 5.29494 5.97611 5.84262 6.5133 6.2069C7.05048 6.57117 7.70208 6.72703 8.34596 6.64524C8.98983 6.56346 9.58178 6.24966 10.0108 5.76265C10.4399 5.27565 10.6766 4.64888 10.6766 3.99983C10.6766 3.35078 10.4399 2.72401 10.0108 2.23701C9.58178 1.75001 8.98983 1.4362 8.34596 1.35442C7.70208 1.27264 7.05048 1.42849 6.5133 1.79276C5.97611 2.15704 5.59022 2.70473 5.42796 3.33316L1.33329 3.33317C1.15648 3.33317 0.986912 3.4034 0.861888 3.52843C0.736863 3.65345 0.666626 3.82302 0.666626 3.99983ZM7.99996 2.6665C8.26367 2.6665 8.52145 2.7447 8.74072 2.89121C8.95998 3.03771 9.13088 3.24595 9.2318 3.48959C9.33271 3.73322 9.35912 4.00131 9.30767 4.25995C9.25623 4.51859 9.12924 4.75617 8.94277 4.94264C8.7563 5.12911 8.51872 5.2561 8.26008 5.30755C8.00144 5.35899 7.73335 5.33259 7.48971 5.23167C7.24608 5.13075 7.03784 4.95986 6.89133 4.74059C6.74482 4.52133 6.66663 4.26354 6.66663 3.99983C6.66663 3.64621 6.8071 3.30707 7.05715 3.05702C7.3072 2.80697 7.64634 2.6665 7.99996 2.6665ZM12 3.99983C12 3.82302 12.0702 3.65345 12.1952 3.52843C12.3202 3.4034 12.4898 3.33316 12.6666 3.33316L14.6666 3.33316C14.8434 3.33316 15.013 3.4034 15.138 3.52843C15.2631 3.65345 15.3333 3.82302 15.3333 3.99983C15.3333 4.17664 15.2631 4.34621 15.138 4.47124C15.013 4.59626 14.8434 4.6665 14.6666 4.6665L12.6666 4.6665C12.4898 4.6665 12.3202 4.59626 12.1952 4.47124C12.0702 4.34621 12 4.17664 12 3.99983Z" fill="#BDBDBD"/>
</g>
<defs>
<clipPath id="clip0">
<rect width="16" height="16" fill="white" transform="translate(0 16) rotate(-90)"/>
</clipPath>
</defs>
</svg>
