<svg width="23" height="22" viewBox="0 0 23 22" fill="none" xmlns="http://www.w3.org/2000/svg">
<path d="M16.5 6.5H3L2 20L3 21.5H17.5L16.5 6.5Z" fill="#ED1C2E"/>
<path d="M21 11H18.335L18 5.934C17.9832 5.68039 17.8705 5.44268 17.6847 5.26919C17.499 5.0957 17.2542 4.99945 17 5H15C15 3.67392 14.4732 2.40215 13.5355 1.46447C12.5978 0.526784 11.3261 0 9.99998 0C8.6739 0 7.40213 0.526784 6.46445 1.46447C5.52677 2.40215 4.99998 3.67392 4.99998 5H2.99998C2.74582 4.99945 2.50097 5.0957 2.31522 5.26919C2.12947 5.44268 2.01676 5.68039 1.99998 5.934L0.999983 20.934C0.990937 21.0708 1.0101 21.2079 1.05629 21.337C1.10248 21.466 1.1747 21.5842 1.26848 21.6842C1.36225 21.7841 1.47558 21.8638 1.60142 21.9181C1.72726 21.9724 1.86292 22.0003 1.99998 22H22C22.1406 22 22.2796 21.9704 22.408 21.913C22.5364 21.8556 22.6512 21.7719 22.745 21.6671C22.8388 21.5624 22.9095 21.439 22.9524 21.3051C22.9953 21.1712 23.0094 21.0298 22.994 20.89L21.994 11.89C21.9669 11.6453 21.8505 11.4192 21.6671 11.255C21.4837 11.0908 21.2462 11 21 11ZM9.99998 2C10.7956 2 11.5587 2.31607 12.1213 2.87868C12.6839 3.44129 13 4.20435 13 5H6.99998C6.99998 4.20435 7.31605 3.44129 7.87866 2.87868C8.44127 2.31607 9.20433 2 9.99998 2ZM3.06898 20L3.93498 7H4.99998V9C4.99998 9.26522 5.10534 9.51957 5.29288 9.70711C5.48041 9.89464 5.73477 10 5.99998 10C6.2652 10 6.51955 9.89464 6.70709 9.70711C6.89463 9.51957 6.99998 9.26522 6.99998 9V7H13V9C13 9.26522 13.1053 9.51957 13.2929 9.70711C13.4804 9.89464 13.7348 10 14 10C14.2652 10 14.5196 9.89464 14.7071 9.70711C14.8946 9.51957 15 9.26522 15 9V7H16.064L16.931 20H3.06898ZM18.935 20L18.469 13H20.105L20.883 20H18.935Z" fill="white"/>
</svg>
