<svg width="20" height="20" viewBox="0 0 20 20" fill="none" xmlns="http://www.w3.org/2000/svg">
<path d="M19.707 2.47479L17.525 0.292786C17.3375 0.105315 17.0832 0 16.818 0C16.5528 0 16.2985 0.105315 16.111 0.292786L7.384 9.02079C7.27387 9.12983 7.19126 9.26351 7.143 9.41079L6.052 12.6838C6.00196 12.834 5.98831 12.994 6.01219 13.1506C6.03608 13.3071 6.0968 13.4558 6.18937 13.5843C6.28193 13.7128 6.40369 13.8175 6.54463 13.8897C6.68556 13.9619 6.84163 13.9997 7 13.9998C7.10746 13.9998 7.2142 13.9822 7.316 13.9478L10.589 12.8568C10.7363 12.8085 10.87 12.7259 10.979 12.6158L19.707 3.88879C19.8945 3.70126 19.9998 3.44695 19.9998 3.18179C19.9998 2.91662 19.8945 2.66231 19.707 2.47479ZM9.732 11.0348L8.581 11.4188L8.965 10.2678L16.818 2.41379L17.586 3.18179L9.732 11.0348ZM0 3.99979C0 3.73457 0.105357 3.48022 0.292893 3.29268C0.48043 3.10514 0.734784 2.99979 1 2.99979H9C9.26522 2.99979 9.51957 3.10514 9.70711 3.29268C9.89464 3.48022 10 3.73457 10 3.99979C10 4.265 9.89464 4.51936 9.70711 4.70689C9.51957 4.89443 9.26522 4.99979 9 4.99979H2V17.9998H15V10.9998C15 10.7346 15.1054 10.4802 15.2929 10.2927C15.4804 10.1051 15.7348 9.99979 16 9.99979C16.2652 9.99979 16.5196 10.1051 16.7071 10.2927C16.8946 10.4802 17 10.7346 17 10.9998V18.9998C17 19.265 16.8946 19.5194 16.7071 19.7069C16.5196 19.8944 16.2652 19.9998 16 19.9998H1C0.734784 19.9998 0.48043 19.8944 0.292893 19.7069C0.105357 19.5194 0 19.265 0 18.9998V3.99979Z" fill="#BDBDBD"/>
</svg>
