<svg width="26" height="24" viewBox="0 0 26 24" fill="none" xmlns="http://www.w3.org/2000/svg">
<path fill-rule="evenodd" clip-rule="evenodd" d="M25.1645 11.6637V11.6242C25.1645 3.56101 20.1169 0 12.602 0C5.04759 0.0028262 0 3.56384 0 11.6242C0 18.4353 3.83515 23.2935 12.602 23.2935C20.8969 23.2935 25.1645 18.7094 25.1645 11.6637Z" fill="#ED1C2E"/>
<path fill-rule="evenodd" clip-rule="evenodd" d="M20.7104 11.4715C20.7104 10.4484 20.2413 9.74748 19.4245 9.74748H14.4221V4.80728C14.4221 3.98769 13.6336 3.52136 12.6105 3.52136C11.5874 3.52136 10.7989 3.98769 10.7989 4.80728V9.74748H5.74002C4.92042 9.74748 4.4541 10.4484 4.4541 11.4715C4.4541 12.4945 4.92042 13.2548 5.74002 13.2548H10.7989V18.4607C10.7989 19.2803 11.5874 19.7748 12.6105 19.7748C13.6336 19.7748 14.4221 19.2774 14.4221 18.4607V13.2548H19.4217C20.2413 13.2548 20.7104 12.4945 20.7104 11.4715Z" fill="#FFD520"/>
</svg>
