<svg width="131" height="31" viewBox="0 0 131 31" fill="none" xmlns="http://www.w3.org/2000/svg">
<path fill-rule="evenodd" clip-rule="evenodd" d="M131 27.6289V2.93642C131 1.057 129.629 0 127.32 0C124.972 0 123.485 1.01743 123.485 2.93642V27.6685C123.485 29.5847 124.972 30.5314 127.32 30.5314C129.593 30.5314 131 29.5084 131 27.6289Z" fill="#283A97"/>
<path fill-rule="evenodd" clip-rule="evenodd" d="M121.529 27.3152C121.529 26.8856 121.139 25.9445 120.865 25.3199C120.277 24.0283 120.161 23.0505 120.161 18.9016V16.4767C120.161 9.31515 116.092 7.51486 109.829 7.51486C105.329 7.51486 101.845 8.53229 100.005 9.74473C98.9084 10.4485 98.6342 11.2313 98.6342 11.8587C98.6342 13.5036 99.5329 15.0297 101.412 15.0297C102.351 15.0297 104.23 14.1677 105.327 13.6195C107.246 12.6812 108.537 12.1724 109.789 12.1724C111.903 12.1724 112.686 13.464 112.686 15.1852V15.6543C101.025 17.2992 97.58 19.9191 97.58 24.3421C97.58 28.4118 100.751 30.8056 105.994 30.8056C108.93 30.8056 112.059 29.8588 113.819 28.4514H113.859C114.602 29.7034 115.815 30.5314 117.889 30.5314C120.079 30.5314 121.529 29.5083 121.529 27.3152ZM112.842 24.6558C111.12 25.7128 109.555 26.1028 108.068 26.1028C106.228 26.1028 105.29 25.2012 105.29 23.8729C105.29 21.9539 107.209 20.4673 112.607 19.8032C112.567 20.8997 112.647 23.2059 112.842 24.6558Z" fill="#283A97"/>
<path fill-rule="evenodd" clip-rule="evenodd" d="M96.7944 27.3944C96.7944 26.1028 96.167 25.2041 94.9149 25.2041C94.1717 25.2041 93.8975 25.4782 92.9197 25.4782C91.3935 25.4782 90.6502 24.3817 90.6502 21.0948V12.6416H93.8212C95.0336 12.6416 95.7006 11.6638 95.7006 10.2931C95.7006 8.92234 95.0365 8.02361 93.8212 8.02361H90.6898V5.20589C90.6898 3.32647 89.3586 2.26947 87.0496 2.26947C84.7406 2.26947 83.1353 3.2869 83.1353 5.20589V8.02361H81.9992C80.7868 8.02361 80.1198 8.92234 80.1198 10.2931C80.1198 11.6638 80.784 12.6416 81.9992 12.6416H83.1353V22.1518C83.1353 29.2342 86.7359 30.8452 91.0007 30.8452C93.2305 30.8452 94.6408 30.2912 95.6978 29.6243C96.2461 29.2738 96.7944 28.5305 96.7944 27.3944Z" fill="#283A97"/>
<path fill-rule="evenodd" clip-rule="evenodd" d="M80.5494 27.3152C80.5494 26.8856 80.1594 25.9445 79.8853 25.3199C79.2974 24.0283 79.1815 23.0505 79.1815 18.9016V16.4767C79.1815 9.31515 75.1118 7.51486 68.8489 7.51486C64.3496 7.51486 60.8649 8.53229 59.0251 9.74473C57.9285 10.4485 57.6544 11.2313 57.6544 11.8587C57.6544 13.5036 58.5531 15.0297 60.4325 15.0297C61.3708 15.0297 63.2502 14.1677 64.3468 13.6195C66.2658 12.6812 67.5545 12.1724 68.8094 12.1724C70.9234 12.1724 71.7062 13.464 71.7062 15.1852V15.6543C60.0453 17.2992 56.6002 19.9191 56.6002 24.3421C56.6002 28.4118 59.7712 30.8056 65.0138 30.8056C67.9502 30.8056 71.0788 29.8588 72.8395 28.4514H72.8791C73.6224 29.7034 74.8348 30.5314 76.9093 30.5314C79.1024 30.5314 80.5494 29.5083 80.5494 27.3152ZM71.8617 24.6558C70.1405 25.7128 68.5748 26.1028 67.0882 26.1028C65.2484 26.1028 64.3101 25.2012 64.3101 23.8729C64.3101 21.9539 66.2291 20.4673 71.6271 19.8032C71.5875 20.8997 71.6667 23.2059 71.8617 24.6558Z" fill="#283A97"/>
<path fill-rule="evenodd" clip-rule="evenodd" d="M54.8341 27.5131V16.1235C54.8341 13.1503 54.2066 10.9968 52.9942 9.58648C51.7818 8.17621 49.7865 7.51205 47.2033 7.51205C45.6376 7.51205 44.1115 7.82576 42.899 8.33448C41.5283 8.88276 40.2 9.58649 38.9084 10.4485H38.7897C38.7106 9.11734 37.9277 7.7862 35.1891 7.7862C32.7643 7.7862 31.354 8.76406 31.354 10.6831V27.5498C31.354 29.4688 32.7247 30.5315 35.11 30.5315C37.4982 30.5315 38.9056 29.5084 38.9056 27.5498V15.8493C39.8439 15.0269 40.8613 14.3232 41.7629 13.854C42.5457 13.464 43.5236 13.2266 44.4252 13.2266C45.5217 13.2266 46.1463 13.6195 46.5787 14.2441C47.127 15.1061 47.2825 16.4739 47.2825 18.3138V27.5102C47.2825 29.3897 48.7295 30.5315 51.1176 30.5315C53.4634 30.5315 54.8341 29.3897 54.8341 27.5131Z" fill="#283A97"/>
<path fill-rule="evenodd" clip-rule="evenodd" d="M25.1645 19.1758V19.1362C25.1645 11.0731 20.1169 7.51205 12.602 7.51205C5.04759 7.51488 0 11.0759 0 19.1362C0 25.9474 3.83515 30.8056 12.602 30.8056C20.8969 30.8056 25.1645 26.2215 25.1645 19.1758Z" fill="#ED1C2E"/>
<path fill-rule="evenodd" clip-rule="evenodd" d="M20.7105 18.9835C20.7105 17.9605 20.2414 17.2596 19.4246 17.2596H14.4222V12.3194C14.4222 11.4998 13.6337 11.0334 12.6106 11.0334C11.5875 11.0334 10.799 11.4998 10.799 12.3194V17.2596H5.74013C4.92053 17.2596 4.45421 17.9605 4.45421 18.9835C4.45421 20.0066 4.92053 20.7669 5.74013 20.7669H10.799V25.9727C10.799 26.7923 11.5875 27.2869 12.6106 27.2869C13.6337 27.2869 14.4222 26.7895 14.4222 25.9727V20.7669H19.4218C20.2414 20.7669 20.7105 20.0066 20.7105 18.9835Z" fill="white"/>
</svg>
